<?xml version="1.0" encoding="UTF-8" standalone="no"?>
<svg
   xmlns:dc="http://purl.org/dc/elements/1.1/"
   xmlns:cc="http://creativecommons.org/ns#"
   xmlns:rdf="http://www.w3.org/1999/02/22-rdf-syntax-ns#"
   xmlns:svg="http://www.w3.org/2000/svg"
   xmlns="http://www.w3.org/2000/svg"
   xmlns:sodipodi="http://sodipodi.sourceforge.net/DTD/sodipodi-0.dtd"
   xmlns:inkscape="http://www.inkscape.org/namespaces/inkscape"
   width="24"
   height="24"
   viewBox="0 0 24 24"
   version="1.1"
   id="svg26"
   sodipodi:docname="ShareIcon.svg"
   inkscape:version="0.92.3 (2405546, 2018-03-11)">
  <metadata
     id="metadata32">
    <rdf:RDF>
      <cc:Work
         rdf:about="">
        <dc:format>image/svg+xml</dc:format>
        <dc:type
           rdf:resource="http://purl.org/dc/dcmitype/StillImage" />
        <dc:title></dc:title>
      </cc:Work>
    </rdf:RDF>
  </metadata>
  <defs
     id="defs30" />
  <sodipodi:namedview
     pagecolor="#ffffff"
     bordercolor="#666666"
     borderopacity="1"
     objecttolerance="10"
     gridtolerance="10"
     guidetolerance="10"
     inkscape:pageopacity="0"
     inkscape:pageshadow="2"
     inkscape:window-width="1920"
     inkscape:window-height="1001"
     id="namedview28"
     showgrid="false"
     inkscape:zoom="33.666667"
     inkscape:cx="12"
     inkscape:cy="12"
     inkscape:window-x="-9"
     inkscape:window-y="-9"
     inkscape:window-maximized="1"
     inkscape:current-layer="svg26" />
  <path
     d="M0 0h24v24H0z"
     fill="none"
     id="path22" />
  <path
     d="m 19.228916,16.963855 c -0.915662,0 -1.73494,0.361446 -2.361446,0.927711 l -8.5903612,-5 c 0.06024,-0.277108 0.108434,-0.554217 0.108434,-0.843373 0,-0.289157 -0.04819,-0.566265 -0.108434,-0.843374 L 16.771084,6.253012 c 0.650602,0.6024097 1.506024,0.9759037 2.457831,0.9759037 2,0 3.614458,-1.6144579 3.614458,-3.6144579 0,-2 -1.614458,-3.6144578 -3.614458,-3.6144578 -2,0 -3.614457,1.6144578 -3.614457,3.6144578 0,0.2891567 0.04819,0.5662651 0.108433,0.8433735 L 7.228916,9.4096386 C 6.5783135,8.8072289 5.7228919,8.4337349 4.7710846,8.4337349 c -2,0 -3.6144578,1.6144581 -3.6144578,3.6144581 0,2 1.6144578,3.614458 3.6144578,3.614458 0.9518073,0 1.8072289,-0.373494 2.4578314,-0.975904 l 8.578313,5.012048 c -0.06024,0.253012 -0.09638,0.518072 -0.09638,0.783133 0,1.939759 1.578313,3.518072 3.518071,3.518072 1.939759,0 3.518072,-1.578313 3.518072,-3.518072 0,-1.939759 -1.578313,-3.518073 -3.518072,-3.518073 z"
     id="path24"
     style="fill:#e9711c;stroke-width:1.20481932"
     inkscape:connector-curvature="0" />
</svg>
