<?xml version="1.0" encoding="UTF-8" standalone="no"?>
<!-- Generator: Adobe Illustrator 19.1.0, SVG Export Plug-In . SVG Version: 6.00 Build 0)  -->

<svg
   xmlns:dc="http://purl.org/dc/elements/1.1/"
   xmlns:cc="http://creativecommons.org/ns#"
   xmlns:rdf="http://www.w3.org/1999/02/22-rdf-syntax-ns#"
   xmlns:svg="http://www.w3.org/2000/svg"
   xmlns="http://www.w3.org/2000/svg"
   xmlns:sodipodi="http://sodipodi.sourceforge.net/DTD/sodipodi-0.dtd"
   xmlns:inkscape="http://www.inkscape.org/namespaces/inkscape"
   version="1.1"
   x="0px"
   y="0px"
   width="24px"
   height="24px"
   viewBox="0 0 24 24"
   enable-background="new 0 0 24 24"
   xml:space="preserve"
   id="svg901"
   sodipodi:docname="WarningIcon.svg"
   inkscape:version="0.92.3 (2405546, 2018-03-11)"><metadata
   id="metadata907"><rdf:RDF><cc:Work
       rdf:about=""><dc:format>image/svg+xml</dc:format><dc:type
         rdf:resource="http://purl.org/dc/dcmitype/StillImage" /><dc:title></dc:title></cc:Work></rdf:RDF></metadata><defs
   id="defs905" /><sodipodi:namedview
   pagecolor="#ffffff"
   bordercolor="#666666"
   borderopacity="1"
   objecttolerance="10"
   gridtolerance="10"
   guidetolerance="10"
   inkscape:pageopacity="0"
   inkscape:pageshadow="2"
   inkscape:window-width="1920"
   inkscape:window-height="1001"
   id="namedview903"
   showgrid="true"
   showguides="false"
   inkscape:zoom="19.666667"
   inkscape:cx="-12.388538"
   inkscape:cy="7.3047416"
   inkscape:window-x="-9"
   inkscape:window-y="-9"
   inkscape:window-maximized="1"
   inkscape:current-layer="svg901"><inkscape:grid
     type="xygrid"
     id="grid4612" /></sodipodi:namedview>
<g
   id="Bounding_Boxes"
   display="none">
	<g
   id="ui_x5F_spec_x5F_header_copy_3"
   display="inline">
	</g>
	<path
   display="inline"
   fill="none"
   d="M0,0h24v24H0V0z"
   id="path894" />
</g>
<g
   id="Rounded"
   style="fill:#e74c3c">
	<g
   id="ui_x5F_spec_x5F_header_copy_5"
   style="fill:#e74c3c">
	</g>
	<path
   d="M4.47,21h15.06c1.54,0,2.5-1.67,1.73-3L13.73,4.99c-0.77-1.33-2.69-1.33-3.46,0L2.74,18C1.97,19.33,2.93,21,4.47,21z    M12,14L12,14c-0.55,0-1-0.45-1-1v-2c0-0.55,0.45-1,1-1h0c0.55,0,1,0.45,1,1v2C13,13.55,12.55,14,12,14z M13,18h-2v-2h2V18z"
   id="path898"
   style="fill:#e74c3c" />
</g>
</svg>